<?xml version="1.0" encoding="utf-8"?>
<!-- Generator: Adobe Illustrator 25.2.1, SVG Export Plug-In . SVG Version: 6.00 Build 0)  -->
<svg version="1.1" id="Layer_1" xmlns="http://www.w3.org/2000/svg" xmlns:xlink="http://www.w3.org/1999/xlink" x="0px" y="0px"
	 viewBox="0 0 831.5 87.7" style="enable-background:new 0 0 831.5 87.7;" xml:space="preserve">
<style type="text/css">
	.st0{fill:#A7C947;}
	.st1{enable-background:new    ;}
</style>
<path d="M251,70.7v-29h-5.9v-4.4h5.9v-1c0-1.6,0.3-3.3,0.9-4.8c0.5-1.3,1.4-2.5,2.4-3.5c1.1-1,2.4-1.7,3.9-2.1
	c1.7-0.5,3.4-0.8,5.1-0.7c1.5,0,3,0.2,4.4,0.5l-0.4,4.6c-0.5-0.1-1-0.1-1.6-0.2s-1.2-0.1-1.8-0.1c-1.8-0.1-3.5,0.5-4.8,1.6
	c-1.2,1.2-1.8,2.9-1.7,4.7v1h6.3v4.4h-6.3v29.1L251,70.7L251,70.7z"/>
<path d="M141,59.6c0-1-0.2-1.9-0.5-2.8c-0.4-0.9-1.1-1.7-1.9-2.2c-1.1-0.8-2.4-1.4-3.7-1.9c-1.9-0.7-3.9-1.3-5.9-1.8
	c-2.3-0.6-4.6-1.3-6.7-2.2c-1.8-0.7-3.6-1.7-5.1-2.8c-1.3-1-2.4-2.2-3.2-3.6c-0.8-1.4-1.2-3-1.1-4.7c0-1.7,0.4-3.4,1.2-4.9
	c0.9-1.5,2-2.9,3.5-3.9c1.6-1.2,3.5-2,5.4-2.6c2.3-0.6,4.6-1,7-0.9c2.6,0,5.1,0.3,7.6,1.1c2,0.7,3.9,1.7,5.6,3
	c1.4,1.2,2.6,2.7,3.4,4.4c0.8,1.6,1.2,3.3,1.2,5.1h-6.7c0-1.2-0.2-2.4-0.7-3.5c-0.4-1.1-1.1-2-2-2.8c-1-0.8-2.2-1.5-3.4-1.8
	c-1.6-0.5-3.2-0.7-4.9-0.6c-1.6,0-3.1,0.2-4.6,0.6c-1.2,0.3-2.3,0.8-3.2,1.5c-0.8,0.6-1.5,1.4-1.9,2.3c-0.4,0.9-0.6,1.9-0.6,2.9
	c0,0.9,0.2,1.8,0.7,2.6c0.5,0.9,1.2,1.6,2.1,2.2c1.1,0.8,2.4,1.4,3.7,1.9c1.7,0.6,3.5,1.2,5.3,1.6c2.5,0.6,5,1.4,7.4,2.4
	c1.8,0.7,3.6,1.8,5.1,3c2.6,2,4.1,5.2,4,8.5c0,1.7-0.4,3.5-1.2,5c-0.9,1.5-2.1,2.8-3.6,3.8c-1.7,1.1-3.6,1.9-5.5,2.4
	c-3.9,0.9-7.9,1.1-11.8,0.5c-1.5-0.2-3-0.6-4.4-1.2c-1.4-0.5-2.7-1.1-3.9-1.9c-1.2-0.7-2.2-1.6-3.2-2.7c-0.9-1-1.6-2.2-2.1-3.4
	c-0.5-1.3-0.8-2.7-0.8-4.2h6.7c0,1.4,0.3,2.8,1,4c0.7,1.1,1.6,2,2.7,2.7c1.2,0.8,2.5,1.3,3.9,1.6c1.5,0.3,3.1,0.5,4.7,0.5
	c3.5,0,6.2-0.6,8-1.9C140,63.7,141.1,61.7,141,59.6z"/>
<path d="M167.4,66.9c1.1,0,2.2-0.2,3.2-0.5s1.9-0.8,2.7-1.4s1.4-1.2,1.9-2s0.8-1.7,0.9-2.6h6c-0.1,1.5-0.6,3-1.4,4.3
	c-0.8,1.4-1.9,2.6-3.2,3.6c-1.4,1.1-3,1.9-4.6,2.4c-1.8,0.6-3.7,0.9-5.6,0.9c-2.5,0.1-5-0.4-7.3-1.3c-2-0.8-3.8-2.1-5.2-3.6
	s-2.4-3.4-3.1-5.3c-0.7-2.1-1-4.2-1-6.4v-1.3c0-2.2,0.3-4.3,1-6.4c1.3-4.1,4.3-7.4,8.3-9c4.3-1.6,8.9-1.8,13.3-0.4
	c1.7,0.6,3.3,1.4,4.7,2.6c1.3,1.1,2.3,2.4,3,3.8c0.7,1.5,1.2,3.1,1.2,4.8h-6c-0.1-1-0.4-2-0.8-2.9c-0.4-0.9-1.1-1.7-1.8-2.3
	c-0.8-0.7-1.7-1.2-2.7-1.6c-1.1-0.4-2.3-0.6-3.5-0.6c-1.7-0.1-3.4,0.3-4.9,1c-1.3,0.7-2.3,1.6-3.1,2.8s-1.4,2.5-1.7,3.9
	s-0.5,2.9-0.5,4.3V55c0,1.5,0.2,2.9,0.5,4.4c0.3,1.4,0.9,2.7,1.7,3.8c0.8,1.2,1.9,2.1,3.1,2.8C163.9,66.6,165.6,67,167.4,66.9z"/>
<path d="M206.1,66.1h23.8V71h-30.5V25.3h6.7V66.1L206.1,66.1z"/>
<path d="M281.3,71.4c-2.4,0-4.8-0.4-7.1-1.2c-2-0.7-3.8-1.9-5.4-3.4c-1.5-1.4-2.7-3.2-3.5-5.1c-0.8-2.1-1.2-4.3-1.2-6.5v-1.3
	c0-2.5,0.4-5,1.4-7.3c0.8-2,2.1-3.9,3.6-5.4s3.3-2.6,5.2-3.4c1.9-0.8,4-1.2,6.1-1.2c2.4-0.1,4.7,0.4,6.9,1.2
	c1.8,0.8,3.5,1.9,4.8,3.5c1.3,1.5,2.2,3.3,2.8,5.2c0.6,2.1,0.9,4.3,0.9,6.5v2.6h-25.3c0,1.5,0.3,2.9,0.9,4.3
	c0.5,1.3,1.2,2.5,2.2,3.5s2.2,1.8,3.5,2.3c1.4,0.6,3,0.9,4.6,0.9c2,0.1,4-0.4,5.7-1.2c1.6-0.8,3-1.9,4.1-3.3l3.9,2.7
	c-0.6,0.9-1.4,1.7-2.2,2.4c-0.9,0.8-1.9,1.5-3,2.1c-1.2,0.6-2.6,1.1-3.9,1.5C284.6,71.2,282.9,71.4,281.3,71.4z M280.5,41.4
	c-1.2,0-2.4,0.2-3.6,0.6c-1.1,0.4-2.1,1-2.9,1.8c-0.9,0.9-1.6,1.9-2.1,3c-0.6,1.3-1,2.7-1.2,4.1h18.7v-0.4c-0.1-1.1-0.3-2.2-0.6-3.3
	c-0.3-1.1-0.8-2.1-1.5-2.9c-0.7-0.9-1.7-1.6-2.7-2.1C283.3,41.6,281.9,41.3,280.5,41.4L280.5,41.4z"/>
<path d="M306.9,65.9h23.8v4.9h-30.5V25h6.6v40.9H306.9z"/>
<path d="M357.1,70.7c-0.3-0.5-0.4-1-0.5-1.6s-0.2-1.3-0.4-2c-0.6,0.6-1.3,1.1-2,1.6c-0.8,0.5-1.6,1-2.5,1.3
	c-0.9,0.4-1.9,0.7-2.9,0.9c-1.1,0.2-2.2,0.3-3.3,0.3c-1.8,0-3.5-0.2-5.2-0.8c-1.5-0.5-2.8-1.2-4-2.1c-1.1-0.9-1.9-1.9-2.5-3.1
	s-0.9-2.5-0.9-3.9c0-1.7,0.4-3.3,1.2-4.8c0.8-1.4,2-2.6,3.4-3.5c1.6-1,3.4-1.7,5.3-2.1c2.3-0.5,4.6-0.7,6.9-0.7h6.4v-2.6
	c0.1-1.8-0.7-3.6-2-4.8s-3.3-1.8-5.9-1.8c-1.1,0-2.2,0.1-3.3,0.4c-0.9,0.3-1.8,0.6-2.5,1.2c-0.7,0.4-1.2,1-1.6,1.7
	c-0.4,0.6-0.6,1.3-0.6,2h-6.4c0-1.3,0.4-2.5,1-3.6c0.8-1.3,1.8-2.3,3-3.2c1.4-1,3-1.8,4.7-2.3c2-0.6,4.1-0.9,6.1-0.9
	c1.9,0,3.8,0.2,5.6,0.7c1.6,0.4,3.1,1.1,4.4,2.1c1.2,0.9,2.2,2.1,2.9,3.5c0.7,1.5,1.1,3.2,1,4.9v15.6c0,1.2,0.1,2.4,0.3,3.6
	c0.2,1.1,0.5,2.2,1,3.2v0.5L357.1,70.7L357.1,70.7z M346.5,66.4c1.1,0,2.2-0.1,3.2-0.4s1.9-0.7,2.8-1.1c0.8-0.4,1.5-1,2.2-1.6
	c0.6-0.5,1.1-1.2,1.4-1.9v-6.9h-5.3c-3.7,0-6.5,0.5-8.5,1.5c-1.9,0.8-3,2.6-3,4.6c0,0.8,0.1,1.5,0.5,2.3c0.3,0.7,0.8,1.3,1.4,1.8
	c0.7,0.5,1.4,0.9,2.2,1.2C344.4,66.2,345.4,66.4,346.5,66.4z"/>
<path d="M399.9,54.4c0,2.3-0.3,4.6-1,6.8c-0.6,2-1.5,3.8-2.8,5.4c-1.2,1.5-2.8,2.7-4.5,3.5c-1.9,0.9-4,1.3-6.1,1.3
	c-2.2,0-4.4-0.3-6.4-1.2c-1.8-0.7-3.3-1.9-4.6-3.3l-0.3,3.9h-5.9V25h6.4v15.9c1.2-1.4,2.8-2.5,4.5-3.2c2-0.8,4.1-1.2,6.2-1.1
	c2.1,0,4.3,0.4,6.2,1.2c1.8,0.8,3.3,2,4.6,3.5c1.3,1.6,2.2,3.4,2.8,5.4c0.7,2.3,1,4.6,1,7v0.7C400,54.4,399.9,54.4,399.9,54.4z
	 M393.5,53.7c0-1.6-0.2-3.2-0.5-4.7c-0.3-1.4-0.9-2.7-1.7-3.9c-0.8-1.1-1.8-2-3-2.7c-1.4-0.7-3-1-4.6-1c-1.1,0-2.1,0.1-3.2,0.4
	c-0.9,0.3-1.8,0.7-2.6,1.2c-0.7,0.5-1.4,1-2,1.7c-0.5,0.6-1,1.3-1.4,2.1v14.4c0.4,0.7,0.9,1.4,1.5,2.1c0.6,0.7,1.3,1.2,2,1.7
	c0.8,0.5,1.6,0.8,2.5,1.1c1,0.3,2.1,0.4,3.2,0.4c1.5,0,3.1-0.3,4.4-1c1.2-0.6,2.2-1.5,3-2.6s1.4-2.4,1.7-3.8
	c0.4-1.5,0.6-3.1,0.5-4.7v-0.7C393.3,53.7,393.5,53.7,393.5,53.7z"/>
<path d="M193.5,71h-6.4V37.5h6.4V71z"/>
<circle cx="190.3" cy="29.1" r="3.8"/>
<circle cx="237.7" cy="28.8" r="3.8"/>
<path d="M240.9,70.7h-6.4V37.2h6.4V70.7z"/>
<path class="st0" d="M54.7,49c0.7-1.4,1-2.9,1-4.5c0-1-0.2-2-0.5-3l0,0c0-0.1,0-0.2-0.1-0.2v-0.1c0,0,0-0.1,0-0.2l0,0
	c-0.6-2-2.1-3.8-3.8-5.9c-2.1-2.5-4.5-5.4-5.7-9.3s-0.9-7.3-0.7-10.4c0.2-2.6,0.4-5.2-0.3-7.5l0,0c0,0,0,0,0-0.1s0-0.1,0-0.2v0.1
	c0-0.1,0-0.2-0.1-0.2S44.4,7.2,44.3,7V6.9c0-0.1-0.1-0.3-0.2-0.4l0,0c-2-4.7-7-7.3-11.9-6.2l0,0l-0.5,0.1h-0.1
	c-0.2,0-0.3,0.1-0.5,0.2c-2.7,0.8-4.9,2.7-6.1,5.2c-0.2,0.3-0.3,0.7-0.4,1c-0.9,2.2-1,4.7-0.3,7l0,0c0,0.1,0,0.2,0.1,0.2l0,0l0,0
	v0.1l0,0v0.1c0.6,2,2.1,3.8,3.8,5.8c2.1,2.5,4.5,5.4,5.7,9.3s1,7.7,0.7,11c-0.2,2.7-0.4,5,0.2,6.9l0,0c0,0,0,0,0,0.1s0,0.1,0,0.2
	v0.1c0,0.1,0,0.2,0.1,0.2s0.1,0.3,0.1,0.4c1.9,5.3,7.6,8.1,13,6.4c2.7-0.8,4.9-2.7,6.1-5.2L54.7,49z"/>
<path class="st0" d="M86.1,22.7c-3.7-5.8-11.4-7.5-17.1-3.8c-2.8,1.8-4.7,4.6-5.4,7.8L63.5,27v0.1c0,0.1,0,0.1,0,0.2l0,0l0,0l0,0
	c-0.5,2.4-0.1,5.1,0.4,8.3c0.6,3.9,1.4,8.3,0.3,13s-3.6,8.5-5.8,11.7c-1.8,2.6-3.3,4.9-3.8,7.3l0,0c0,0,0,0,0,0.1s0,0.1,0,0.2V68
	c0,0.1,0,0.2-0.1,0.3C53,75,57.2,81.6,63.9,83.1c0.9,0.2,1.8,0.3,2.7,0.3c2.4,0,4.7-0.7,6.7-1.9c0.7-0.4,1.3-0.9,1.9-1.5
	c1.8-1.7,3-3.9,3.5-6.3l0,0l0.1-0.3v-0.1c0-0.1,0-0.1,0-0.2l0,0c0,0,0,0,0-0.1l0,0c0.5-2.4,0.1-5.1-0.4-8.3c-0.6-3.9-1.3-8.3-0.3-13
	s3.4-8.1,5.5-11.1c1.8-2.6,3.5-5.1,4.1-7.9l0,0c0,0,0,0,0-0.1s0-0.1,0-0.2v-0.1c0-0.1,0-0.2,0.1-0.3C88.4,28.8,87.9,25.5,86.1,22.7z
	"/>
<path class="st0" d="M16.3,27.1c-5.5-2.8-12.2-0.7-15,4.8c-2.9,5.4-0.7,12.2,4.7,15c1.6,0.8,3.3,1.3,5.1,1.3c6.2,0,11.2-5,11.2-11.1
	C22.3,32.9,20,29,16.3,27.1L16.3,27.1z"/>
<g class="st1">
	<path d="M501.4,49.3c0,3.3-0.5,6.3-1.6,8.9c-1,2.7-2.5,5-4.4,6.9c-1.9,1.9-4.2,3.4-6.9,4.5c-2.7,1.1-5.6,1.6-8.9,1.6h-16.5V27.4
		h16.5c3.3,0,6.2,0.5,8.9,1.6c2.7,1.1,5,2.5,6.9,4.5c1.9,1.9,3.4,4.2,4.4,6.9C500.9,43,501.4,46,501.4,49.3z M494.7,49.3
		c0-2.6-0.4-4.9-1.1-7s-1.7-3.8-3-5.2s-2.9-2.5-4.8-3.3c-1.9-0.8-3.9-1.1-6.2-1.1h-9.9v33.3h9.9c2.3,0,4.4-0.4,6.2-1.1
		c1.9-0.8,3.4-1.8,4.8-3.3s2.3-3.2,3-5.2S494.7,51.9,494.7,49.3z"/>
	<path d="M506.8,44.5c1.7-1.6,3.6-2.9,5.6-3.7c2-0.8,4.2-1.2,6.7-1.2c1.8,0,3.3,0.3,4.7,0.9c1.4,0.6,2.5,1.4,3.4,2.4
		c0.9,1,1.6,2.3,2.1,3.7c0.5,1.4,0.7,3,0.7,4.8v19.8h-2.7c-0.6,0-1-0.1-1.3-0.3c-0.3-0.2-0.5-0.6-0.7-1.1l-0.6-2.7
		c-0.8,0.7-1.6,1.4-2.3,1.9c-0.8,0.6-1.6,1-2.4,1.4s-1.7,0.7-2.7,0.9c-1,0.2-2,0.3-3.2,0.3c-1.2,0-2.4-0.2-3.4-0.5
		c-1.1-0.3-2-0.8-2.8-1.5c-0.8-0.7-1.4-1.6-1.9-2.6c-0.5-1-0.7-2.2-0.7-3.6c0-1.2,0.3-2.4,1-3.5c0.7-1.1,1.7-2.1,3.2-3
		c1.5-0.9,3.4-1.6,5.9-2.2c2.4-0.6,5.4-0.9,8.9-1v-2.3c0-2.3-0.5-4.1-1.5-5.2c-1-1.2-2.5-1.7-4.4-1.7c-1.3,0-2.4,0.2-3.3,0.5
		c-0.9,0.3-1.6,0.7-2.3,1.1c-0.6,0.4-1.2,0.8-1.7,1.1c-0.5,0.3-1,0.5-1.5,0.5c-0.4,0-0.8-0.1-1.1-0.3c-0.3-0.2-0.5-0.5-0.7-0.8
		L506.8,44.5z M524.2,57.4c-2.4,0.1-4.5,0.3-6.2,0.6c-1.7,0.3-3.1,0.7-4.1,1.2c-1.1,0.5-1.8,1.1-2.3,1.7c-0.5,0.7-0.7,1.4-0.7,2.2
		c0,0.8,0.1,1.4,0.4,2c0.3,0.6,0.6,1,1,1.4c0.4,0.4,1,0.6,1.5,0.8c0.6,0.2,1.2,0.2,1.9,0.2c0.9,0,1.8-0.1,2.5-0.3
		c0.8-0.2,1.5-0.4,2.2-0.8c0.7-0.3,1.3-0.7,1.9-1.2c0.6-0.5,1.2-1,1.8-1.7V57.4z"/>
	<path d="M547.3,71.6c-2.5,0-4.4-0.7-5.8-2.1c-1.4-1.4-2-3.4-2-6V45h-3.6c-0.3,0-0.6-0.1-0.9-0.3c-0.2-0.2-0.4-0.5-0.4-1v-2.4l5-0.7
		l1.3-9.2c0.1-0.3,0.2-0.6,0.5-0.8s0.5-0.3,0.9-0.3h3v10.4h8.8V45h-8.8v18.1c0,1.2,0.3,2.1,0.9,2.7c0.6,0.6,1.4,0.9,2.3,0.9
		c0.5,0,1-0.1,1.4-0.2c0.4-0.1,0.7-0.3,1-0.5c0.3-0.2,0.5-0.3,0.7-0.5s0.4-0.2,0.5-0.2c0.2,0,0.4,0,0.5,0.1c0.1,0.1,0.2,0.2,0.4,0.4
		l1.8,2.9c-1,0.9-2.1,1.6-3.5,2.1C550.2,71.4,548.8,71.6,547.3,71.6z"/>
	<path d="M558.9,44.5c1.7-1.6,3.6-2.9,5.6-3.7c2-0.8,4.2-1.2,6.7-1.2c1.8,0,3.3,0.3,4.7,0.9s2.5,1.4,3.4,2.4s1.6,2.3,2.1,3.7
		c0.5,1.4,0.7,3,0.7,4.8v19.8h-2.7c-0.6,0-1-0.1-1.3-0.3c-0.3-0.2-0.5-0.6-0.7-1.1l-0.6-2.7c-0.8,0.7-1.6,1.4-2.3,1.9
		c-0.8,0.6-1.6,1-2.4,1.4s-1.7,0.7-2.7,0.9c-1,0.2-2,0.3-3.2,0.3c-1.2,0-2.4-0.2-3.4-0.5c-1.1-0.3-2-0.8-2.8-1.5
		c-0.8-0.7-1.4-1.6-1.9-2.6c-0.5-1-0.7-2.2-0.7-3.6c0-1.2,0.3-2.4,1-3.5c0.7-1.1,1.7-2.1,3.2-3s3.4-1.6,5.9-2.2
		c2.4-0.6,5.4-0.9,8.9-1v-2.3c0-2.3-0.5-4.1-1.5-5.2s-2.5-1.7-4.4-1.7c-1.3,0-2.4,0.2-3.3,0.5c-0.9,0.3-1.6,0.7-2.3,1.1
		s-1.2,0.8-1.7,1.1s-1,0.5-1.5,0.5c-0.4,0-0.8-0.1-1.1-0.3s-0.5-0.5-0.7-0.8L558.9,44.5z M576.4,57.4c-2.4,0.1-4.5,0.3-6.2,0.6
		c-1.7,0.3-3.1,0.7-4.1,1.2c-1.1,0.5-1.8,1.1-2.3,1.7c-0.5,0.7-0.7,1.4-0.7,2.2c0,0.8,0.1,1.4,0.4,2c0.3,0.6,0.6,1,1,1.4
		s1,0.6,1.5,0.8c0.6,0.2,1.2,0.2,1.9,0.2c0.9,0,1.8-0.1,2.5-0.3c0.8-0.2,1.5-0.4,2.1-0.8c0.7-0.3,1.3-0.7,1.9-1.2
		c0.6-0.5,1.2-1,1.8-1.7V57.4z"/>
	<path d="M620.1,27.4c2.8,0,5.2,0.3,7.3,1c2.1,0.7,3.8,1.6,5.2,2.8c1.4,1.2,2.4,2.6,3,4.3c0.7,1.7,1,3.6,1,5.6s-0.4,3.9-1.1,5.7
		c-0.7,1.7-1.8,3.2-3.1,4.4c-1.4,1.2-3.1,2.2-5.2,2.9c-2.1,0.7-4.4,1-7.1,1h-6.8v16.1h-6.5V27.4H620.1z M620.1,49.9
		c1.6,0,3.1-0.2,4.3-0.6c1.2-0.4,2.3-1,3.1-1.8c0.8-0.8,1.5-1.7,1.9-2.8c0.4-1.1,0.6-2.3,0.6-3.6c0-2.7-0.8-4.8-2.5-6.3
		s-4.2-2.3-7.5-2.3h-6.8v17.4H620.1z"/>
	<path d="M648.4,26.1v45h-6v-45H648.4z"/>
	<path d="M656.1,44.5c1.7-1.6,3.6-2.9,5.6-3.7c2-0.8,4.2-1.2,6.7-1.2c1.8,0,3.3,0.3,4.7,0.9c1.4,0.6,2.5,1.4,3.4,2.4
		c0.9,1,1.6,2.3,2.1,3.7c0.5,1.4,0.7,3,0.7,4.8v19.8h-2.7c-0.6,0-1-0.1-1.3-0.3c-0.3-0.2-0.5-0.6-0.7-1.1l-0.6-2.7
		c-0.8,0.7-1.6,1.4-2.3,1.9c-0.8,0.6-1.6,1-2.4,1.4s-1.7,0.7-2.7,0.9c-1,0.2-2,0.3-3.2,0.3c-1.2,0-2.4-0.2-3.4-0.5
		c-1.1-0.3-2-0.8-2.8-1.5c-0.8-0.7-1.4-1.6-1.9-2.6c-0.5-1-0.7-2.2-0.7-3.6c0-1.2,0.3-2.4,1-3.5c0.7-1.1,1.7-2.1,3.2-3
		c1.5-0.9,3.4-1.6,5.9-2.2c2.4-0.6,5.4-0.9,8.9-1v-2.3c0-2.3-0.5-4.1-1.5-5.2c-1-1.2-2.5-1.7-4.4-1.7c-1.3,0-2.4,0.2-3.3,0.5
		c-0.9,0.3-1.6,0.7-2.3,1.1c-0.6,0.4-1.2,0.8-1.7,1.1c-0.5,0.3-1,0.5-1.5,0.5c-0.4,0-0.8-0.1-1.1-0.3c-0.3-0.2-0.5-0.5-0.7-0.8
		L656.1,44.5z M673.5,57.4c-2.4,0.1-4.5,0.3-6.2,0.6c-1.7,0.3-3.1,0.7-4.1,1.2c-1.1,0.5-1.8,1.1-2.3,1.7c-0.5,0.7-0.7,1.4-0.7,2.2
		c0,0.8,0.1,1.4,0.4,2c0.3,0.6,0.6,1,1,1.4c0.4,0.4,1,0.6,1.5,0.8c0.6,0.2,1.2,0.2,1.9,0.2c0.9,0,1.8-0.1,2.5-0.3
		c0.8-0.2,1.5-0.4,2.2-0.8c0.7-0.3,1.3-0.7,1.9-1.2c0.6-0.5,1.2-1,1.8-1.7V57.4z"/>
	<path d="M709.6,71.2V45h-14.8v18.1c0,1.2,0.3,2.1,0.9,2.7c0.6,0.6,1.4,0.9,2.3,0.9c0.5,0,1-0.1,1.4-0.2c0.4-0.1,0.7-0.3,1-0.5
		c0.3-0.2,0.5-0.3,0.7-0.5s0.4-0.2,0.5-0.2c0.2,0,0.4,0,0.5,0.1c0.1,0.1,0.2,0.2,0.4,0.4l1.8,2.9c-1,0.9-2.1,1.6-3.5,2.1
		c-1.3,0.5-2.7,0.7-4.2,0.7c-2.5,0-4.4-0.7-5.8-2.1c-1.4-1.4-2-3.4-2-6V45h-3.6c-0.3,0-0.6-0.1-0.9-0.3c-0.2-0.2-0.4-0.5-0.4-1v-2.4
		l5-0.7l1.3-9.2c0.1-0.3,0.2-0.6,0.5-0.8s0.5-0.3,0.9-0.3h3v10.4h14.8v-2.8c0-1.8,0.3-3.3,0.8-4.7c0.5-1.4,1.2-2.6,2.2-3.5
		c0.9-1,2.1-1.7,3.4-2.2s2.8-0.7,4.5-0.7c1.4,0,2.7,0.2,3.9,0.6l-0.2,3c0,0.3-0.1,0.5-0.2,0.6c-0.1,0.1-0.3,0.2-0.6,0.3
		c-0.2,0.1-0.5,0.1-0.9,0.1c-0.3,0-0.7,0-1.1,0c-0.9,0-1.7,0.1-2.5,0.3c-0.8,0.2-1.4,0.6-1.9,1.1c-0.5,0.5-0.9,1.2-1.2,2.1
		c-0.3,0.9-0.4,1.9-0.4,3.2v2.6h8.7V45h-8.5v26.2H709.6z"/>
	<path d="M741.4,39.7c2.3,0,4.3,0.4,6.2,1.1c1.8,0.7,3.4,1.8,4.7,3.2s2.3,3.1,3,5c0.7,2,1,4.2,1,6.6c0,2.4-0.3,4.6-1,6.6
		c-0.7,2-1.7,3.7-3,5s-2.9,2.4-4.7,3.2c-1.8,0.7-3.9,1.1-6.2,1.1c-2.3,0-4.4-0.4-6.2-1.1s-3.4-1.8-4.7-3.2c-1.3-1.4-2.3-3.1-3-5
		c-0.7-2-1.1-4.2-1.1-6.6c0-2.4,0.4-4.6,1.1-6.6c0.7-2,1.7-3.6,3-5c1.3-1.4,2.9-2.5,4.7-3.2S739.1,39.7,741.4,39.7z M741.4,66.9
		c2.9,0,5.1-1,6.6-3c1.4-2,2.2-4.7,2.2-8.3c0-3.6-0.7-6.4-2.2-8.3c-1.4-2-3.6-3-6.6-3c-3,0-5.2,1-6.6,3c-1.5,2-2.2,4.8-2.2,8.3
		c0,3.6,0.7,6.4,2.2,8.3C736.2,66,738.4,66.9,741.4,66.9z"/>
	<path d="M768.5,46.1c1-2,2.2-3.6,3.6-4.8s3.1-1.7,5.1-1.7c0.7,0,1.3,0.1,1.9,0.2c0.6,0.2,1.1,0.4,1.6,0.7l-0.4,4.5
		c-0.1,0.5-0.5,0.8-1,0.8c-0.3,0-0.7-0.1-1.3-0.2c-0.6-0.1-1.2-0.2-1.8-0.2c-1,0-1.8,0.1-2.5,0.4c-0.7,0.3-1.4,0.7-2,1.2
		c-0.6,0.5-1.1,1.2-1.5,2c-0.4,0.8-0.9,1.7-1.3,2.7v19.4h-5.9v-31h3.4c0.7,0,1.1,0.1,1.3,0.4c0.2,0.2,0.4,0.6,0.5,1.2L768.5,46.1z"
		/>
	<path d="M785.2,71.2v-31h3.6c0.8,0,1.4,0.4,1.6,1.2l0.4,3c1.1-1.4,2.4-2.5,3.8-3.3c1.4-0.9,3-1.3,4.9-1.3c2.1,0,3.7,0.6,5,1.7
		c1.3,1.1,2.2,2.7,2.8,4.6c0.4-1.1,1-2,1.7-2.8s1.5-1.4,2.4-2c0.9-0.5,1.8-0.9,2.8-1.1c1-0.2,2-0.4,3-0.4c1.6,0,3.1,0.3,4.4,0.8
		s2.4,1.3,3.3,2.3c0.9,1,1.6,2.2,2,3.7s0.7,3.1,0.7,5v19.7h-6V51.4c0-2.3-0.5-4.1-1.5-5.2c-1-1.2-2.5-1.8-4.4-1.8
		c-0.9,0-1.7,0.1-2.4,0.4c-0.8,0.3-1.4,0.7-2,1.3c-0.6,0.6-1,1.3-1.4,2.2c-0.3,0.9-0.5,1.9-0.5,3v19.7h-6V51.4
		c0-2.4-0.5-4.2-1.4-5.3s-2.4-1.7-4.2-1.7c-1.3,0-2.5,0.3-3.6,1c-1.1,0.7-2.1,1.6-3,2.7v23H785.2z"/>
</g>
</svg>
