<svg width="831.5" height="87.7" xmlns="http://www.w3.org/2000/svg" xml:space="preserve" version="1.1">

 <g>
  <title>Layer 1</title>
  <path id="svg_1" d="m251,70.7l0,-29l-5.9,0l0,-4.4l5.9,0l0,-1c0,-1.6 0.3,-3.3 0.9,-4.8c0.5,-1.3 1.4,-2.5 2.4,-3.5c1.1,-1 2.4,-1.7 3.9,-2.1c1.7,-0.5 3.4,-0.8 5.1,-0.7c1.5,0 3,0.2 4.4,0.5l-0.4,4.6c-0.5,-0.1 -1,-0.1 -1.6,-0.2s-1.2,-0.1 -1.8,-0.1c-1.8,-0.1 -3.5,0.5 -4.8,1.6c-1.2,1.2 -1.8,2.9 -1.7,4.7l0,1l6.3,0l0,4.4l-6.3,0l0,29.1l-6.4,-0.1l0,0z"/>
  <path id="svg_2" d="m141,59.6c0,-1 -0.2,-1.9 -0.5,-2.8c-0.4,-0.9 -1.1,-1.7 -1.9,-2.2c-1.1,-0.8 -2.4,-1.4 -3.7,-1.9c-1.9,-0.7 -3.9,-1.3 -5.9,-1.8c-2.3,-0.6 -4.6,-1.3 -6.7,-2.2c-1.8,-0.7 -3.6,-1.7 -5.1,-2.8c-1.3,-1 -2.4,-2.2 -3.2,-3.6c-0.8,-1.4 -1.2,-3 -1.1,-4.7c0,-1.7 0.4,-3.4 1.2,-4.9c0.9,-1.5 2,-2.9 3.5,-3.9c1.6,-1.2 3.5,-2 5.4,-2.6c2.3,-0.6 4.6,-1 7,-0.9c2.6,0 5.1,0.3 7.6,1.1c2,0.7 3.9,1.7 5.6,3c1.4,1.2 2.6,2.7 3.4,4.4c0.8,1.6 1.2,3.3 1.2,5.1l-6.7,0c0,-1.2 -0.2,-2.4 -0.7,-3.5c-0.4,-1.1 -1.1,-2 -2,-2.8c-1,-0.8 -2.2,-1.5 -3.4,-1.8c-1.6,-0.5 -3.2,-0.7 -4.9,-0.6c-1.6,0 -3.1,0.2 -4.6,0.6c-1.2,0.3 -2.3,0.8 -3.2,1.5c-0.8,0.6 -1.5,1.4 -1.9,2.3c-0.4,0.9 -0.6,1.9 -0.6,2.9c0,0.9 0.2,1.8 0.7,2.6c0.5,0.9 1.2,1.6 2.1,2.2c1.1,0.8 2.4,1.4 3.7,1.9c1.7,0.6 3.5,1.2 5.3,1.6c2.5,0.6 5,1.4 7.4,2.4c1.8,0.7 3.6,1.8 5.1,3c2.6,2 4.1,5.2 4,8.5c0,1.7 -0.4,3.5 -1.2,5c-0.9,1.5 -2.1,2.8 -3.6,3.8c-1.7,1.1 -3.6,1.9 -5.5,2.4c-3.9,0.9 -7.9,1.1 -11.8,0.5c-1.5,-0.2 -3,-0.6 -4.4,-1.2c-1.4,-0.5 -2.7,-1.1 -3.9,-1.9c-1.2,-0.7 -2.2,-1.6 -3.2,-2.7c-0.9,-1 -1.6,-2.2 -2.1,-3.4c-0.5,-1.3 -0.8,-2.7 -0.8,-4.2l6.7,0c0,1.4 0.3,2.8 1,4c0.7,1.1 1.6,2 2.7,2.7c1.2,0.8 2.5,1.3 3.9,1.6c1.5,0.3 3.1,0.5 4.7,0.5c3.5,0 6.2,-0.6 8,-1.9c1.4,-1.2 2.5,-3.2 2.4,-5.3z"/>
  <path id="svg_3" d="m167.4,66.9c1.1,0 2.2,-0.2 3.2,-0.5s1.9,-0.8 2.7,-1.4s1.4,-1.2 1.9,-2s0.8,-1.7 0.9,-2.6l6,0c-0.1,1.5 -0.6,3 -1.4,4.3c-0.8,1.4 -1.9,2.6 -3.2,3.6c-1.4,1.1 -3,1.9 -4.6,2.4c-1.8,0.6 -3.7,0.9 -5.6,0.9c-2.5,0.1 -5,-0.4 -7.3,-1.3c-2,-0.8 -3.8,-2.1 -5.2,-3.6s-2.4,-3.4 -3.1,-5.3c-0.7,-2.1 -1,-4.2 -1,-6.4l0,-1.3c0,-2.2 0.3,-4.3 1,-6.4c1.3,-4.1 4.3,-7.4 8.3,-9c4.3,-1.6 8.9,-1.8 13.3,-0.4c1.7,0.6 3.3,1.4 4.7,2.6c1.3,1.1 2.3,2.4 3,3.8c0.7,1.5 1.2,3.1 1.2,4.8l-6,0c-0.1,-1 -0.4,-2 -0.8,-2.9c-0.4,-0.9 -1.1,-1.7 -1.8,-2.3c-0.8,-0.7 -1.7,-1.2 -2.7,-1.6c-1.1,-0.4 -2.3,-0.6 -3.5,-0.6c-1.7,-0.1 -3.4,0.3 -4.9,1c-1.3,0.7 -2.3,1.6 -3.1,2.8s-1.4,2.5 -1.7,3.9s-0.5,2.9 -0.5,4.3l0,1.3c0,1.5 0.2,2.9 0.5,4.4c0.3,1.4 0.9,2.7 1.7,3.8c0.8,1.2 1.9,2.1 3.1,2.8c1.4,0.6 3.1,1 4.9,0.9z"/>
  <path id="svg_4" d="m206.1,66.1l23.8,0l0,4.9l-30.5,0l0,-45.7l6.7,0l0,40.8l0,0z"/>
  <path id="svg_5" d="m281.3,71.4c-2.4,0 -4.8,-0.4 -7.1,-1.2c-2,-0.7 -3.8,-1.9 -5.4,-3.4c-1.5,-1.4 -2.7,-3.2 -3.5,-5.1c-0.8,-2.1 -1.2,-4.3 -1.2,-6.5l0,-1.3c0,-2.5 0.4,-5 1.4,-7.3c0.8,-2 2.1,-3.9 3.6,-5.4s3.3,-2.6 5.2,-3.4c1.9,-0.8 4,-1.2 6.1,-1.2c2.4,-0.1 4.7,0.4 6.9,1.2c1.8,0.8 3.5,1.9 4.8,3.5c1.3,1.5 2.2,3.3 2.8,5.2c0.6,2.1 0.9,4.3 0.9,6.5l0,2.6l-25.3,0c0,1.5 0.3,2.9 0.9,4.3c0.5,1.3 1.2,2.5 2.2,3.5s2.2,1.8 3.5,2.3c1.4,0.6 3,0.9 4.6,0.9c2,0.1 4,-0.4 5.7,-1.2c1.6,-0.8 3,-1.9 4.1,-3.3l3.9,2.7c-0.6,0.9 -1.4,1.7 -2.2,2.4c-0.9,0.8 -1.9,1.5 -3,2.1c-1.2,0.6 -2.6,1.1 -3.9,1.5c-1.7,0.4 -3.4,0.6 -5,0.6zm-0.8,-30c-1.2,0 -2.4,0.2 -3.6,0.6c-1.1,0.4 -2.1,1 -2.9,1.8c-0.9,0.9 -1.6,1.9 -2.1,3c-0.6,1.3 -1,2.7 -1.2,4.1l18.7,0l0,-0.4c-0.1,-1.1 -0.3,-2.2 -0.6,-3.3c-0.3,-1.1 -0.8,-2.1 -1.5,-2.9c-0.7,-0.9 -1.7,-1.6 -2.7,-2.1c-1.3,-0.6 -2.7,-0.9 -4.1,-0.8l0,0z"/>
  <path id="svg_6" d="m306.9,65.9l23.8,0l0,4.9l-30.5,0l0,-45.8l6.6,0l0,40.9l0.1,0z"/>
  <path id="svg_7" d="m357.1,70.7c-0.3,-0.5 -0.4,-1 -0.5,-1.6s-0.2,-1.3 -0.4,-2c-0.6,0.6 -1.3,1.1 -2,1.6c-0.8,0.5 -1.6,1 -2.5,1.3c-0.9,0.4 -1.9,0.7 -2.9,0.9c-1.1,0.2 -2.2,0.3 -3.3,0.3c-1.8,0 -3.5,-0.2 -5.2,-0.8c-1.5,-0.5 -2.8,-1.2 -4,-2.1c-1.1,-0.9 -1.9,-1.9 -2.5,-3.1s-0.9,-2.5 -0.9,-3.9c0,-1.7 0.4,-3.3 1.2,-4.8c0.8,-1.4 2,-2.6 3.4,-3.5c1.6,-1 3.4,-1.7 5.3,-2.1c2.3,-0.5 4.6,-0.7 6.9,-0.7l6.4,0l0,-2.6c0.1,-1.8 -0.7,-3.6 -2,-4.8s-3.3,-1.8 -5.9,-1.8c-1.1,0 -2.2,0.1 -3.3,0.4c-0.9,0.3 -1.8,0.6 -2.5,1.2c-0.7,0.4 -1.2,1 -1.6,1.7c-0.4,0.6 -0.6,1.3 -0.6,2l-6.4,0c0,-1.3 0.4,-2.5 1,-3.6c0.8,-1.3 1.8,-2.3 3,-3.2c1.4,-1 3,-1.8 4.7,-2.3c2,-0.6 4.1,-0.9 6.1,-0.9c1.9,0 3.8,0.2 5.6,0.7c1.6,0.4 3.1,1.1 4.4,2.1c1.2,0.9 2.2,2.1 2.9,3.5c0.7,1.5 1.1,3.2 1,4.9l0,15.6c0,1.2 0.1,2.4 0.3,3.6c0.2,1.1 0.5,2.2 1,3.2l0,0.5l-6.7,0.3l0,0zm-10.6,-4.3c1.1,0 2.2,-0.1 3.2,-0.4s1.9,-0.7 2.8,-1.1c0.8,-0.4 1.5,-1 2.2,-1.6c0.6,-0.5 1.1,-1.2 1.4,-1.9l0,-6.9l-5.3,0c-3.7,0 -6.5,0.5 -8.5,1.5c-1.9,0.8 -3,2.6 -3,4.6c0,0.8 0.1,1.5 0.5,2.3c0.3,0.7 0.8,1.3 1.4,1.8c0.7,0.5 1.4,0.9 2.2,1.2c1,0.3 2,0.5 3.1,0.5z"/>
  <path id="svg_8" d="m399.9,54.4c0,2.3 -0.3,4.6 -1,6.8c-0.6,2 -1.5,3.8 -2.8,5.4c-1.2,1.5 -2.8,2.7 -4.5,3.5c-1.9,0.9 -4,1.3 -6.1,1.3c-2.2,0 -4.4,-0.3 -6.4,-1.2c-1.8,-0.7 -3.3,-1.9 -4.6,-3.3l-0.3,3.9l-5.9,0l0,-45.8l6.4,0l0,15.9c1.2,-1.4 2.8,-2.5 4.5,-3.2c2,-0.8 4.1,-1.2 6.2,-1.1c2.1,0 4.3,0.4 6.2,1.2c1.8,0.8 3.3,2 4.6,3.5c1.3,1.6 2.2,3.4 2.8,5.4c0.7,2.3 1,4.6 1,7l0,0.7c0,0 -0.1,0 -0.1,0zm-6.4,-0.7c0,-1.6 -0.2,-3.2 -0.5,-4.7c-0.3,-1.4 -0.9,-2.7 -1.7,-3.9c-0.8,-1.1 -1.8,-2 -3,-2.7c-1.4,-0.7 -3,-1 -4.6,-1c-1.1,0 -2.1,0.1 -3.2,0.4c-0.9,0.3 -1.8,0.7 -2.6,1.2c-0.7,0.5 -1.4,1 -2,1.7c-0.5,0.6 -1,1.3 -1.4,2.1l0,14.4c0.4,0.7 0.9,1.4 1.5,2.1c0.6,0.7 1.3,1.2 2,1.7c0.8,0.5 1.6,0.8 2.5,1.1c1,0.3 2.1,0.4 3.2,0.4c1.5,0 3.1,-0.3 4.4,-1c1.2,-0.6 2.2,-1.5 3,-2.6s1.4,-2.4 1.7,-3.8c0.4,-1.5 0.6,-3.1 0.5,-4.7l0,-0.7c0,0 0.2,0 0.2,0z"/>
  <path id="svg_9" d="m193.5,71l-6.4,0l0,-33.5l6.4,0l0,33.5z"/>
  <circle id="svg_10" r="3.8" cy="29.1" cx="190.3"/>
  <circle id="svg_11" r="3.8" cy="28.8" cx="237.7"/>
  <path id="svg_12" d="m240.9,70.7l-6.4,0l0,-33.5l6.4,0l0,33.5z"/>
  <path id="svg_13" fill="#A7C947" d="m54.7,49c0.7,-1.4 1,-2.9 1,-4.5c0,-1 -0.2,-2 -0.5,-3l0,0c0,-0.1 0,-0.2 -0.1,-0.2l0,-0.1c0,0 0,-0.1 0,-0.2l0,0c-0.6,-2 -2.1,-3.8 -3.8,-5.9c-2.1,-2.5 -4.5,-5.4 -5.7,-9.3s-0.9,-7.3 -0.7,-10.4c0.2,-2.6 0.4,-5.2 -0.3,-7.5l0,0c0,0 0,0 0,-0.1s0,-0.1 0,-0.2l0,0.1c0,-0.1 0,-0.2 -0.1,-0.2s-0.1,-0.3 -0.2,-0.5l0,-0.1c0,-0.1 -0.1,-0.3 -0.2,-0.4l0,0c-2,-4.7 -7,-7.3 -11.9,-6.2l0,0l-0.5,0.1l-0.1,0c-0.2,0 -0.3,0.1 -0.5,0.2c-2.7,0.8 -4.9,2.7 -6.1,5.2c-0.2,0.3 -0.3,0.7 -0.4,1c-0.9,2.2 -1,4.7 -0.3,7l0,0c0,0.1 0,0.2 0.1,0.2l0,0l0,0l0,0.1l0,0l0,0.1c0.6,2 2.1,3.8 3.8,5.8c2.1,2.5 4.5,5.4 5.7,9.3s1,7.7 0.7,11c-0.2,2.7 -0.4,5 0.2,6.9l0,0c0,0 0,0 0,0.1s0,0.1 0,0.2l0,0.1c0,0.1 0,0.2 0.1,0.2s0.1,0.3 0.1,0.4c1.9,5.3 7.6,8.1 13,6.4c2.7,-0.8 4.9,-2.7 6.1,-5.2l0.6,-0.4z" class="st0"/>
  <path id="svg_14" fill="#A7C947" d="m86.1,22.7c-3.7,-5.8 -11.4,-7.5 -17.1,-3.8c-2.8,1.8 -4.7,4.6 -5.4,7.8l-0.1,0.3l0,0.1c0,0.1 0,0.1 0,0.2l0,0l0,0l0,0c-0.5,2.4 -0.1,5.1 0.4,8.3c0.6,3.9 1.4,8.3 0.3,13s-3.6,8.5 -5.8,11.7c-1.8,2.6 -3.3,4.9 -3.8,7.3l0,0c0,0 0,0 0,0.1s0,0.1 0,0.2l0,0.1c0,0.1 0,0.2 -0.1,0.3c-1.5,6.7 2.7,13.3 9.4,14.8c0.9,0.2 1.8,0.3 2.7,0.3c2.4,0 4.7,-0.7 6.7,-1.9c0.7,-0.4 1.3,-0.9 1.9,-1.5c1.8,-1.7 3,-3.9 3.5,-6.3l0,0l0.1,-0.3l0,-0.1c0,-0.1 0,-0.1 0,-0.2l0,0c0,0 0,0 0,-0.1l0,0c0.5,-2.4 0.1,-5.1 -0.4,-8.3c-0.6,-3.9 -1.3,-8.3 -0.3,-13s3.4,-8.1 5.5,-11.1c1.8,-2.6 3.5,-5.1 4.1,-7.9l0,0c0,0 0,0 0,-0.1s0,-0.1 0,-0.2l0,-0.1c0,-0.1 0,-0.2 0.1,-0.3c0.6,-3.2 0.1,-6.5 -1.7,-9.3z" class="st0"/>
  <path id="svg_15" fill="#A7C947" d="m16.3,27.1c-5.5,-2.8 -12.2,-0.7 -15,4.8c-2.9,5.4 -0.7,12.2 4.7,15c1.6,0.8 3.3,1.3 5.1,1.3c6.2,0 11.2,-5 11.2,-11.1c0,-4.2 -2.3,-8.1 -6,-10l0,0z" class="st0"/>
  <text transform="matrix(2.09156 0 0 2.35629 -485.953 -60.1116)" stroke="#000" font-weight="bold" xml:space="preserve" text-anchor="start" font-family="'Raleway'" font-size="24" id="svg_29" y="53.29803" x="445.89275" stroke-width="0" fill="#000000">RDM guidelines</text>
 </g>
</svg>